<svg xmlns="http://www.w3.org/2000/svg" width="154" height="21" fill="none"><path fill="#131E7F" d="M105.614 3.084c1.656 0 3.103.323 4.34.968 1.253.63 2.215 1.545 2.886 2.746.686 1.185 1.029 2.573 1.029 4.163 0 1.59-.343 2.971-1.029 4.141-.671 1.17-1.633 2.071-2.886 2.701-1.237.615-2.684.923-4.34.923h-5.078V3.084zm0 13.549c1.82 0 3.214-.495 4.184-1.485.969-.99 1.454-2.386 1.454-4.187 0-1.815-.485-3.233-1.454-4.253-.97-1.02-2.364-1.53-4.184-1.53h-2.528v11.455zM127.247 12.222c0 .465-.03.885-.089 1.26h-9.419c.075.99.44 1.786 1.097 2.386.656.6 1.461.9 2.416.9 1.372 0 2.341-.578 2.908-1.733h2.752c-.373 1.14-1.052 2.078-2.036 2.813-.97.72-2.178 1.08-3.624 1.08-1.179 0-2.237-.262-3.177-.787a5.86 5.86 0 0 1-2.192-2.25c-.522-.976-.783-2.101-.783-3.377 0-1.275.253-2.393.76-3.353.522-.975 1.245-1.726 2.17-2.25.94-.526 2.014-.788 3.222-.788 1.163 0 2.199.255 3.109.765.91.51 1.618 1.23 2.126 2.16.507.916.76 1.973.76 3.174m-2.662-.81c-.015-.946-.351-1.703-1.007-2.274-.656-.57-1.469-.855-2.438-.855-.88 0-1.633.285-2.26.855-.626.556-.999 1.313-1.118 2.274zM128.459 12.514c0-1.275.254-2.393.761-3.353.522-.975 1.238-1.726 2.148-2.25.909-.526 1.953-.788 3.132-.788 1.491 0 2.722.36 3.691 1.08.984.705 1.648 1.718 1.991 3.038h-2.752c-.223-.615-.581-1.095-1.074-1.44-.492-.345-1.111-.518-1.856-.518-1.044 0-1.88.375-2.506 1.125-.611.736-.917 1.77-.917 3.106 0 1.336.306 2.378.917 3.129.626.75 1.462 1.125 2.506 1.125 1.476 0 2.453-.653 2.93-1.958h2.752c-.358 1.26-1.029 2.266-2.013 3.016-.985.735-2.208 1.102-3.669 1.102-1.179 0-2.223-.262-3.132-.787a5.759 5.759 0 0 1-2.148-2.25c-.507-.976-.761-2.101-.761-3.377M147.153 12.537l5.682 6.189h-3.445l-4.564-5.334v5.334h-2.55V2.072h2.55v9.677l4.475-5.424h3.534z"/><path fill="#131E7F" fill-rule="evenodd" d="M109.988 17.867c-1.25.621-2.709.93-4.374.93h-5.151V3.013h5.151c1.666 0 3.124.324 4.374.976 1.266.636 2.238 1.561 2.916 2.774.693 1.198 1.039 2.598 1.039 4.198 0 1.6-.346 2.994-1.039 4.177-.678 1.182-1.651 2.092-2.916 2.729m2.852-2.765c.686-1.17 1.029-2.55 1.029-4.14 0-1.591-.343-2.979-1.029-4.164-.671-1.2-1.633-2.116-2.886-2.746-1.237-.645-2.684-.968-4.34-.968h-5.078v15.642h5.078c1.656 0 3.103-.308 4.34-.923 1.253-.63 2.215-1.53 2.886-2.7m14.38-1.548h-9.401c.086.938.442 1.69 1.067 2.261.641.587 1.428.881 2.366.881.675 0 1.247-.142 1.718-.423.471-.28.846-.702 1.124-1.269l.02-.04h2.898l-.031.093c-.377 1.154-1.065 2.104-2.061 2.848-.984.732-2.209 1.095-3.668 1.095-1.19 0-2.262-.265-3.213-.797h-.002a5.946 5.946 0 0 1-2.219-2.278v-.001c-.529-.988-.792-2.125-.792-3.41 0-1.284.256-2.414.769-3.386.528-.987 1.261-1.747 2.198-2.28h.001c.952-.532 2.038-.797 3.258-.797 1.174 0 2.224.258 3.146.775a5.442 5.442 0 0 1 2.153 2.189c.514.927.769 1.996.769 3.207 0 .468-.03.892-.09 1.271zm-.733-4.506a5.378 5.378 0 0 0-2.126-2.16c-.91-.51-1.946-.765-3.109-.765-1.208 0-2.282.262-3.222.787-.925.525-1.648 1.276-2.17 2.25-.507.961-.76 2.079-.76 3.354 0 1.276.261 2.4.783 3.376a5.86 5.86 0 0 0 2.192 2.25c.94.526 1.998.788 3.177.788 1.446 0 2.654-.36 3.624-1.08.963-.72 1.634-1.633 2.012-2.741l.024-.072h-2.752c-.567 1.155-1.536 1.733-2.908 1.733-.955 0-1.76-.3-2.416-.9-.641-.586-1.004-1.357-1.091-2.314l-.006-.072h9.419c.059-.375.089-.795.089-1.26 0-1.2-.253-2.258-.76-3.174m-7.557.143h-.001c-.593.527-.956 1.24-1.084 2.149h6.665c-.03-.893-.358-1.607-.98-2.148-.642-.557-1.437-.837-2.39-.837-.862 0-1.597.278-2.21.836m5.653 2.149c-.03-.912-.365-1.646-1.005-2.202-.656-.57-1.469-.855-2.438-.855-.88 0-1.633.285-2.26.855-.61.542-.98 1.276-1.109 2.202l-.009.072h6.823zm4.572-2.212zc.528-.987 1.253-1.747 2.175-2.28.923-.532 1.98-.797 3.17-.797 1.503 0 2.75.363 3.735 1.095.999.716 1.671 1.744 2.018 3.078l.023.089h-2.897l-.018-.048c-.219-.603-.568-1.07-1.047-1.406-.477-.335-1.08-.504-1.814-.504-1.024 0-1.837.366-2.449 1.099-.597.718-.901 1.735-.901 3.06 0 1.326.303 2.35.901 3.084.612.732 1.425 1.098 2.449 1.098.727 0 1.325-.16 1.798-.477.474-.316.829-.792 1.063-1.433l.018-.048h2.899l-.025.091c-.362 1.274-1.042 2.293-2.039 3.053h-.001c-.999.747-2.239 1.118-3.713 1.118-1.19 0-2.247-.265-3.17-.798a5.832 5.832 0 0 1-2.175-2.278v-.001c-.513-.987-.769-2.124-.769-3.409 0-1.284.256-2.414.769-3.386m2.839 6.515c-.611-.75-.917-1.793-.917-3.129 0-1.335.306-2.37.917-3.106.626-.75 1.462-1.125 2.506-1.125.745 0 1.364.173 1.856.518.493.345.851.825 1.074 1.44h2.752l-.019-.071c-.348-1.286-1.006-2.275-1.972-2.967-.969-.72-2.2-1.08-3.691-1.08-1.179 0-2.223.262-3.132.787-.91.525-1.626 1.276-2.148 2.25-.507.961-.761 2.079-.761 3.354 0 1.276.254 2.4.761 3.376a5.759 5.759 0 0 0 2.148 2.25c.909.526 1.953.788 3.132.788 1.461 0 2.684-.367 3.669-1.102.965-.736 1.629-1.718 1.992-2.945l.021-.071h-2.752c-.477 1.305-1.454 1.958-2.93 1.958-1.044 0-1.88-.375-2.506-1.125m15.159-3.106 5.682 6.189h-3.445l-4.564-5.334v5.334h-2.55V2.072h2.55v9.677l4.475-5.424h3.534zm-2.253-.99V2h-2.697v16.797h2.697V13.59l4.456 5.208H153l-5.749-6.26 5.748-6.283h-3.733zm-39.286 5.014c1.806 0 3.179-.49 4.131-1.463.953-.973 1.434-2.349 1.434-4.137 0-1.803-.481-3.201-1.435-4.205-.952-1.001-2.324-1.507-4.13-1.507h-2.454V16.56zm0 .072c1.82 0 3.214-.495 4.184-1.485.969-.99 1.454-2.386 1.454-4.187 0-1.815-.485-3.233-1.454-4.253-.97-1.02-2.364-1.53-4.184-1.53h-2.528v11.455z" clip-rule="evenodd"/><path fill="url(#a)" d="M93.625 9.363a5.348 5.348 0 0 0-2.145-2.118c-.918-.5-1.962-.748-3.126-.748-1.163 0-2.287.255-3.234.77l.04.07-.002-.004-.038-.067a5.494 5.494 0 0 0-2.19 2.205l.072.037h.002l-.073-.037c-.511.94-.764 2.03-.764 3.265 0 1.235.26 2.333.786 3.287v.001l.07-.038h.002l-.072.038v.001a5.833 5.833 0 0 0 2.207 2.201l.04-.07-.04.07.027-.047.012-.022-.04.07c.947.514 2.013.77 3.191.77 1.445 0 2.664-.35 3.647-1.059.99-.719 1.675-1.638 2.051-2.755l.035-.104.036-.106h-3.024l-.022.045-.022.045c-.265.525-.621.912-1.065 1.17-.444.257-.987.389-1.636.389-.897 0-1.645-.273-2.255-.815-.57-.505-.905-1.165-1.002-1.99h9.182l.01-.068.011-.067c.06-.366.09-.775.09-1.223 0-1.165-.254-2.199-.766-3.097zm-7.538.222.054.06c.582-.515 1.28-.772 2.103-.772.916 0 1.672.26 2.282.774.565.478.873 1.1.922 1.881h-6.321c.135-.794.474-1.418 1.013-1.882l-.054-.06z"/><path fill="url(#b)" d="M38.012 3.584v10.719L30.774 3.62l-.025-.037H28v15.222h2.825V8.067l7.238 10.703.025.037h2.75V3.583z"/><path fill="url(#c)" d="m78.946 6.689-.02.055-3.281 9.23-3.282-9.23-.02-.055h-3.027l.043.11 4.64 11.955.02.052h3.206l.02-.051 4.663-11.956.043-.11z"/><path fill="url(#d)" d="M66.91 2a1.73 1.73 0 0 0-1.255.496 1.653 1.653 0 0 0-.508 1.227c0 .482.17.895.508 1.226.339.331.761.496 1.255.496.494 0 .895-.167 1.233-.496.34-.331.508-.744.508-1.226 0-.483-.169-.896-.508-1.227A1.705 1.705 0 0 0 66.91 2"/><path fill="url(#e)" d="M61.004 6.689V3.756h-2.848v2.933h-1.424v2.312h1.424v6.37c0 1.18.306 2.07.954 2.625.639.548 1.545.81 2.694.81h2.136v-2.354h-1.698c-.495 0-.809-.09-.984-.236-.157-.157-.254-.426-.254-.846V9h2.936V6.69z"/><path fill="url(#f)" d="M52.483 6.689H52.4v1.437a5.285 5.285 0 0 0-1.468-1.055c-.73-.385-1.581-.574-2.552-.574a5.78 5.78 0 0 0-2.976.793c-.889.515-1.595 1.243-2.12 2.18l.072.039h.001l-.073-.037c-.51.94-.763 2.015-.763 3.222 0 1.207.253 2.297.762 3.264l.072-.036h.002l-.074.037.073-.036h-.001l-.072.037.073-.037-.007.004-.066.034c.524.951 1.23 1.7 2.117 2.244h.002c.887.53 1.867.795 2.933.795.957 0 1.816-.19 2.573-.575a5.338 5.338 0 0 0 1.491-1.09v1.472h2.848V6.69zm-.083 6.048c0 .79-.17 1.476-.505 2.063l.072.04-.003-.002-.07-.038v.001a3.33 3.33 0 0 1-1.274 1.308c-.53.3-1.1.45-1.715.45a3.455 3.455 0 0 1-1.713-.45c-.527-.312-.96-.76-1.298-1.352-.32-.586-.483-1.272-.483-2.063 0-.79.163-1.463.483-2.02.337-.576.77-1.003 1.294-1.287.53-.3 1.101-.45 1.715-.45.614 0 1.184.15 1.715.45.526.297.951.732 1.274 1.308v.001l.07-.039h.002l-.072.04c.333.572.504 1.25.504 2.04z"/><path fill="url(#g)" d="M65.475 6.689v12.118h2.826V6.688z"/><path fill="url(#h)" fill-rule="evenodd" d="M21.196 7.439H.6l.506 7.903c-.001.063.003.124.011.183l.001.018h.002c.052.336.243.605.484.85a108.624 108.624 0 0 0 4.003 3.526c.621.448 1.565.731 2.506.726h5.827c.922-.003 2.008-.542 2.56-.98.099-.011 3.554-2.967 3.794-3.272.165-.21.327-.517.365-.85h.012z" clip-rule="evenodd"/><g opacity=".2"><path fill="url(#i)" d="M9.237 9.329c.83-.248 2.621-.25 3.488 0l4.952 1.575c.875.254 1.331.633 1.573 1.2l.687 1.375.688 1.604c.141.5-.092 1.007-.331 1.312-.24.304-3.695 3.26-3.794 3.272-.552.437-1.638.977-2.56.98H8.113c-.941.004-1.885-.278-2.506-.727a108.718 108.718 0 0 1-4.003-3.526c-.342-.348-.583-.744-.47-1.31.345-1.234 1.277-2.942 1.277-2.942.339-.725.76-.997 1.569-1.238 0 0 4.427-1.328 5.257-1.575"/><path fill="#fff" d="M10.412 16.708c.165-.08.399-.066.525.031l1.186.946c.123.097.087.244-.079.323l-1.406.683c-.166.08-.4.066-.526-.03l-1.186-.947c-.122-.096-.086-.243.08-.323zM8.42 15.17c.166-.08.4-.067.526.03l1.186.946c.123.097.087.244-.079.323l-1.406.683c-.166.08-.4.066-.526-.03l-1.186-.947c-.122-.096-.086-.243.08-.323zM6.43 13.634c.166-.08.4-.066.526.03l1.186.947c.123.097.087.243-.079.323l-1.407.683c-.165.08-.399.066-.525-.03l-1.186-.947c-.123-.096-.087-.243.079-.323zM12.823 15.59c.166-.08.4-.066.526.031l1.186.946c.122.097.086.244-.08.323l-1.406.683c-.165.08-.399.066-.525-.03l-1.186-.947c-.123-.096-.087-.243.079-.323zM10.834 14.052c.165-.08.399-.066.525.03l1.186.947c.123.097.087.244-.079.323l-1.406.683c-.166.08-.4.066-.526-.03l-1.186-.947c-.122-.096-.087-.243.079-.323zM8.841 12.518c.166-.08.4-.066.526.031l1.186.947c.122.096.087.243-.079.322l-1.407.684c-.165.08-.399.066-.525-.031l-1.186-.947c-.123-.096-.087-.243.079-.322zM15.238 14.473c.166-.08.4-.066.526.031l1.186.946c.122.097.086.244-.08.323l-1.406.684c-.165.08-.399.066-.525-.031l-1.186-.946c-.123-.097-.087-.244.079-.324z"/></g><path fill="url(#j)" d="M9.151.404c.886-.263 2.795-.266 3.72 0l5.279 1.68c.932.27 1.392.698 1.65 1.302l1.319 3.683c.258.6-.069 1.144-.666 1.619L16.5 11.696c-.588.466-1.352.772-2.334.774H7.954c-1.004.006-2.01-.296-2.673-.774l-3.91-3.009C.684 8.194.402 7.685.614 7.07l1.26-3.665c.198-.576.81-1.064 1.673-1.32z"/><path fill="#fff" d="M10.392 7.751c.187-.093.446-.089.582.009l1.277.956c.132.097.086.256-.101.348l-1.59.796c-.186.092-.445.089-.58-.009l-1.278-.956c-.132-.097-.086-.256.101-.349zM8.233 6.195c.187-.093.446-.089.582.009l1.277.956c.132.097.086.256-.101.348l-1.59.796c-.186.092-.445.088-.581-.01L6.543 7.34c-.132-.098-.086-.256.101-.349zM6.074 4.646c.187-.093.446-.089.582.009l1.277.956c.132.097.086.256-.101.349l-1.59.795c-.186.093-.445.089-.581-.009L4.384 5.79c-.132-.097-.086-.256.101-.349zM13.115 6.4c.187-.093.446-.089.582.009l1.277.956c.132.097.086.256-.101.348l-1.59.796c-.186.092-.445.089-.581-.009l-1.277-.956c-.132-.097-.086-.256.101-.349zM10.955 4.845c.187-.092.445-.089.582.009l1.276.956c.132.097.086.256-.1.349l-1.59.795c-.187.093-.445.089-.581-.009L9.265 5.99c-.132-.097-.086-.256.1-.348zM8.797 3.295c.187-.093.445-.089.581.009l1.277.956c.132.097.086.256-.1.348l-1.59.796c-.187.092-.445.089-.582-.009l-1.276-.956c-.132-.097-.086-.256.1-.349zM15.839 5.05c.187-.092.445-.088.581.01l1.277.955c.132.098.086.256-.1.349l-1.59.795c-.187.093-.445.089-.582-.009l-1.276-.956c-.132-.097-.086-.256.1-.348z"/><defs><linearGradient id="a" x1="88.5" x2="46.289" y1="17.5" y2="-11.123" gradientUnits="userSpaceOnUse"><stop stop-color="#139CFF"/><stop offset="1" stop-color="#16E0D5"/></linearGradient><linearGradient id="b" x1="88.5" x2="46.289" y1="17.5" y2="-11.123" gradientUnits="userSpaceOnUse"><stop stop-color="#139CFF"/><stop offset="1" stop-color="#16E0D5"/></linearGradient><linearGradient id="c" x1="88.5" x2="46.289" y1="17.5" y2="-11.123" gradientUnits="userSpaceOnUse"><stop stop-color="#139CFF"/><stop offset="1" stop-color="#16E0D5"/></linearGradient><linearGradient id="d" x1="88.5" x2="46.289" y1="17.5" y2="-11.123" gradientUnits="userSpaceOnUse"><stop stop-color="#139CFF"/><stop offset="1" stop-color="#16E0D5"/></linearGradient><linearGradient id="e" x1="88.5" x2="46.289" y1="17.5" y2="-11.123" gradientUnits="userSpaceOnUse"><stop stop-color="#139CFF"/><stop offset="1" stop-color="#16E0D5"/></linearGradient><linearGradient id="f" x1="88.5" x2="46.289" y1="17.5" y2="-11.123" gradientUnits="userSpaceOnUse"><stop stop-color="#139CFF"/><stop offset="1" stop-color="#16E0D5"/></linearGradient><linearGradient id="g" x1="88.5" x2="46.289" y1="17.5" y2="-11.123" gradientUnits="userSpaceOnUse"><stop stop-color="#139CFF"/><stop offset="1" stop-color="#16E0D5"/></linearGradient><linearGradient id="h" x1="1.349" x2="21.696" y1="14.702" y2="14.431" gradientUnits="userSpaceOnUse"><stop stop-color="#CCF2FA"/><stop offset=".192" stop-color="#F2FDFF"/><stop offset=".309" stop-color="#B8F9FB"/><stop offset=".655" stop-color="#B8F9FB"/><stop offset=".767" stop-color="#F2FDFF"/><stop offset=".95" stop-color="#CCF2FA"/></linearGradient><linearGradient id="i" x1="11.903" x2="9.477" y1="20.097" y2="10.841" gradientUnits="userSpaceOnUse"><stop stop-color="#139CFF"/><stop offset="1" stop-color="#1BE7DC"/></linearGradient><linearGradient id="j" x1="11.92" x2="9.335" y1="11.884" y2="2.016" gradientUnits="userSpaceOnUse"><stop stop-color="#139CFF"/><stop offset="1" stop-color="#1BE7DC"/></linearGradient></defs></svg>